HIERARCHY
ROOT Hips
{
	OFFSET -3.958830 18.904000 13.208200
	CHANNELS 6 Xposition Yposition Zposition Zrotation Yrotation Xrotation 
	JOINT LHipJoint
	{
		OFFSET 0.000000 0.000000 0.000000
		CHANNELS 3 Zrotation Yrotation Xrotation
		JOINT LeftUpLeg
		{
			OFFSET 1.800000 -1.400000 0.085000
			CHANNELS 3 Zrotation Yrotation Xrotation
			JOINT LeftLeg
			{
				OFFSET 2.215000 -6.000000 0.000000
				CHANNELS 3 Zrotation Yrotation Xrotation
				JOINT LeftFoot
				{
					OFFSET 2.500000 -6.900000 0.000000
					CHANNELS 3 Zrotation Yrotation Xrotation
					JOINT LeftToeBase
					{
						OFFSET 0.200000 -0.500000 1.950000
						CHANNELS 3 Zrotation Yrotation Xrotation
						End Site
						{
							OFFSET 0.000000 0.000000 0.000000
						}
					}
				}
			}
		}
	}
	JOINT RHipJoint
	{
		OFFSET 0.000000 0.000000 0.000000
		CHANNELS 3 Zrotation Yrotation Xrotation
		JOINT RightUpLeg
		{
			OFFSET -1.800000 -1.400000 0.085000
			CHANNELS 3 Zrotation Yrotation Xrotation
			JOINT RightLeg
			{
				OFFSET -2.215000 -6.000000 0.000000
				CHANNELS 3 Zrotation Yrotation Xrotation
				JOINT RightFoot
				{
					OFFSET -2.500000 -6.900000 0.000000
					CHANNELS 3 Zrotation Yrotation Xrotation
					JOINT RightToeBase
					{
						OFFSET -0.200000 -0.500000 1.950000
						CHANNELS 3 Zrotation Yrotation Xrotation
						End Site
						{
							OFFSET 0.000000 0.000000 0.000000
						}
					}
				}
			}
		}
	}
	JOINT LowerBack
	{
		OFFSET 0.000000 0.000000 0.000000
		CHANNELS 3 Zrotation Yrotation Xrotation
		JOINT Spine
		{
			OFFSET -0.087000 1.940000 -0.288900
			CHANNELS 3 Zrotation Yrotation Xrotation
			JOINT Spine1
			{
				OFFSET 0.000000 1.950000 0.060000
				CHANNELS 3 Zrotation Yrotation Xrotation
				JOINT Neck
				{
					OFFSET 0.000000 0.000000 0.000000
					CHANNELS 3 Zrotation Yrotation Xrotation
					JOINT Neck1
					{
						OFFSET 0.000000 1.600000 0.340000
						CHANNELS 3 Zrotation Yrotation Xrotation
						JOINT Head
						{
							OFFSET 0.000000 1.667000 -0.240000
							CHANNELS 3 Zrotation Yrotation Xrotation
							End Site
							{
								OFFSET 0.000000 0.000000 0.000000
							}
						}
					}
				}
				JOINT LeftShoulder
				{
					OFFSET 0.000000 0.000000 0.000000
					CHANNELS 3 Zrotation Yrotation Xrotation
					JOINT LeftArm
					{
						OFFSET 2.700000 1.550000 -0.730000
						CHANNELS 3 Zrotation Yrotation Xrotation
						JOINT LeftForeArm
						{
							OFFSET 5.450000 0.000000 0.000000
							CHANNELS 3 Zrotation Yrotation Xrotation
							JOINT LeftHand
							{
								OFFSET 3.450000 0.000000 0.000000
								CHANNELS 3 Zrotation Yrotation Xrotation
								JOINT LeftHandIndex1
								{
									OFFSET 0.750000 0.000000 0.000000
									CHANNELS 3 Zrotation Yrotation Xrotation
									End Site
									{
										OFFSET 0.000000 0.000000 0.000000
									}
								}
							}
						}
					}
				}
				JOINT RightShoulder
				{
					OFFSET 0.000000 0.000000 0.000000
					CHANNELS 3 Zrotation Yrotation Xrotation
					JOINT RightArm
					{
						OFFSET -2.700000 1.550000 -0.730000
						CHANNELS 3 Zrotation Yrotation Xrotation
						JOINT RightForeArm
						{
							OFFSET -5.450000 0.000000 0.000000
							CHANNELS 3 Zrotation Yrotation Xrotation
							JOINT RightHand
							{
								OFFSET -3.450000 0.000000 0.000000
								CHANNELS 3 Zrotation Yrotation Xrotation
								JOINT RightHandIndex1
								{
									OFFSET -0.750000 0.000000 0.000000
									CHANNELS 3 Zrotation Yrotation Xrotation
									End Site
									{
										OFFSET 0.000000 0.000000 0.000000
									}
								}
							}
						}
					}
				}
			}
		}
	}
}
MOTION
Frames: 8
Frame Time: 0.016667
0.368170 19.653700 -1.719250 -5.442240 -0.383176 42.777248 -16.831807 12.787824 8.067105 11.607792 -12.910254 -64.377026 -3.952828 5.293844 33.870182 8.054280 -2.237229 5.151546 10.791950 8.914810 9.489410 16.755665 -5.662935 6.470228 2.654723 14.936172 -58.910713 -10.911256 5.486882 31.410943 -1.887565 0.462761 8.000401 5.824260 -10.369060 0.164090 0.741043 -10.754314 -13.988752 13.460611 -10.657745 3.555045 -7.651584 16.943722 -68.390418 16.473624 -0.737902 -61.029337 -37.493816 28.610505 100.878256 10.658200 16.795100 13.942310 56.155436 25.010501 22.541523 -61.481343 12.337972 -26.133824 28.404004 -49.691213 -2.257603 0.642954 4.382114 -0.980830 -1.528440 4.531960 1.024690 -60.473905 -14.112914 27.240182 74.470812 -8.984406 -20.725901 -24.217156 48.906239 -4.679337 3.626080 -10.301580 5.865420 -6.219790 -10.618960 -2.166960 
0.353120 19.644760 -1.705130 -4.874908 -1.098620 42.856746 -16.785152 12.830049 7.998194 10.841220 -12.927709 -63.727099 -4.370197 5.341713 33.080031 7.999844 -2.346831 5.162716 10.809970 8.932650 9.534150 16.780547 -5.680765 6.559366 2.431636 15.045879 -59.405405 -12.141874 5.882220 31.942286 -1.921285 0.269892 7.891900 5.853690 -10.359920 0.204550 0.663922 -10.720315 -14.060452 13.358896 -10.129657 3.002173 -6.921195 15.777677 -68.061820 16.467241 -0.486805 -60.846025 -37.123798 28.359523 100.446197 10.481000 17.570240 15.053400 55.864841 24.912265 22.580696 -60.125305 15.007361 -25.865621 27.929941 -50.868171 -2.022125 0.658676 4.322750 -0.957170 -1.505250 4.570270 1.017370 -60.441562 -14.468487 27.445698 74.541897 -6.879878 -19.427757 -25.680965 48.213405 -5.151033 3.998215 -10.358091 5.847360 -6.241390 -10.652440 -2.147310 
0.348210 19.649500 -1.683420 -4.195193 -1.439025 42.863917 -16.730033 12.909961 7.969467 9.900601 -13.103331 -63.113117 -4.748354 5.309887 32.324853 7.949156 -2.503044 5.171106 10.826000 8.954610 9.505620 16.799943 -5.715964 6.641730 1.314488 15.013735 -59.753862 -12.019464 5.891633 32.655173 -1.951903 0.155675 7.869810 5.892220 -10.399420 0.183650 0.577162 -10.687907 -14.103160 13.212721 -10.520679 2.540686 -6.983044 14.923800 -67.971909 16.445174 -0.150178 -60.971988 -37.238711 28.984041 100.121994 11.867490 17.869620 15.235640 55.985770 25.388553 22.444454 -58.539321 15.744969 -25.688502 27.540504 -50.737522 -1.880976 0.642916 4.382436 -0.949530 -1.512770 4.563020 1.028790 -60.515870 -15.395165 27.904324 74.776411 -5.642411 -18.747229 -25.004476 48.646983 -5.149811 3.868625 -10.489892 5.854140 -6.256130 -10.639260 -2.189130 
0.353650 19.646860 -1.659690 -3.877392 -1.866783 43.016267 -16.692236 12.940781 7.948883 9.198316 -13.316719 -62.717365 -4.637921 5.132148 32.063558 7.966852 -2.629115 5.186733 10.853140 9.011510 9.470200 16.820996 -5.719505 6.705020 0.123849 14.970152 -60.237974 -11.191481 5.704666 33.289097 -2.006449 0.064919 7.789497 5.958280 -10.449230 0.217660 0.506849 -10.649631 -14.130397 13.147786 -10.528279 2.220679 -7.125714 14.641640 -67.679493 16.767295 0.174809 -61.050574 -38.497806 30.278879 98.008450 14.210900 16.981730 15.548980 55.460615 26.135049 22.203226 -56.922994 15.856305 -25.502908 26.967545 -50.597643 -1.790818 0.702925 4.499138 -0.942960 -1.522040 4.616260 1.082890 -60.265482 -16.507373 28.089647 73.689726 -6.038541 -17.896983 -23.313315 50.513639 -4.511461 3.467607 -10.642104 5.872450 -6.319170 -10.681900 -2.176190 
0.376290 19.639850 -1.647940 -4.305131 -1.976131 43.210463 -16.764633 13.022025 8.002649 9.581429 -13.286967 -63.297118 -4.490028 5.300409 32.817658 7.987087 -2.469167 5.205790 10.840900 8.978830 9.498740 16.775563 -5.521228 6.717222 -0.466409 15.095317 -60.416119 -9.962160 5.340726 33.806584 -1.993894 0.111638 7.857382 5.929060 -10.385700 0.109640 0.661614 -11.192669 -14.130991 14.040439 -10.380565 2.425659 -6.946198 15.193417 -67.478009 17.461010 0.473810 -60.913385 -39.801853 30.946978 96.202384 14.004030 17.419460 16.151740 55.111161 26.538138 22.101553 -56.623960 17.284484 -25.379657 27.038375 -51.197090 -1.816946 0.688910 4.388787 -0.955150 -1.537300 4.546590 1.065790 -60.157027 -16.907995 28.299670 72.790145 -5.395506 -17.054078 -23.285967 51.017028 -4.286899 3.441381 -10.581604 5.838400 -6.199620 -10.650290 -2.208120 
0.400880 19.629020 -1.635580 -4.942737 -1.489435 43.769546 -16.861046 12.968732 8.070555 10.214419 -13.150896 -64.708402 -3.861401 5.458271 34.273082 7.972713 -2.098180 5.195188 10.742010 8.880200 9.419360 16.748564 -5.304125 6.665721 0.491897 15.331120 -60.438602 -10.624148 5.469390 33.184231 -1.946540 0.191376 7.923264 5.901270 -10.275380 0.048660 0.816441 -11.619859 -14.102462 14.989581 -9.630548 3.126598 -5.853852 15.510454 -67.417865 18.449788 0.338008 -60.143804 -40.558098 30.322861 93.172919 12.237990 17.964680 17.228040 54.676616 27.109501 22.089697 -56.659768 19.506442 -25.121140 25.244336 -52.665519 -1.237878 0.768284 4.294990 -0.954870 -1.506860 4.464180 1.072160 -60.488295 -17.120152 28.114716 70.242938 -4.382339 -17.263070 -18.952304 50.374524 -3.139087 2.841994 -10.664509 5.748400 -6.085260 -10.587000 -2.233930 
0.428760 19.631050 -1.620550 -4.775390 -1.415749 43.895059 -16.843250 12.981450 8.126323 9.220003 -13.717520 -64.880232 -2.539774 4.940104 34.722263 7.920626 -2.183111 5.255267 10.723750 8.834330 9.441060 16.754185 -5.330749 6.657793 -0.617125 14.987614 -60.696595 -9.172008 4.952977 33.422885 -1.931702 0.214695 7.949048 5.889740 -10.244140 0.007230 0.786362 -11.606386 -14.143784 15.099094 -9.868496 3.114754 -5.941609 15.332719 -67.452995 18.257352 0.195618 -60.244784 -39.182373 29.025176 94.038243 11.112950 18.772790 17.456810 54.791347 27.620003 22.201790 -55.833607 20.439818 -24.389283 25.180359 -53.482927 -0.931934 0.717335 4.216424 -0.934750 -1.501470 4.436770 1.060830 -60.232043 -17.388184 28.208186 69.897639 -3.590423 -17.465195 -18.496689 49.735218 -3.342482 2.767763 -10.637076 5.703360 -6.019820 -10.573770 -2.268620 
0.435290 19.633030 -1.588780 -4.649476 -1.550504 43.983530 -16.774723 13.032765 8.180842 9.037098 -13.814137 -64.522087 -2.948040 4.973892 34.203708 7.810054 -2.223890 5.279556 10.738330 8.808320 9.496700 16.774467 -5.416326 6.732742 -1.118774 14.890330 -60.776194 -8.581007 4.774611 33.452975 -1.930877 0.247073 7.972180 5.914610 -10.249970 -0.046900 0.674402 -11.452552 -14.345226 15.013598 -10.287927 2.486164 -6.959888 14.993378 -67.651113 17.022797 -0.151441 -60.826067 -35.589578 25.851765 97.295301 9.748770 20.088990 18.314260 55.485368 27.621363 22.574366 -53.699643 20.671202 -23.918847 22.039007 -54.306705 0.076057 0.908275 4.241878 -0.887610 -1.505650 4.426680 1.043210 -59.636300 -17.612580 28.087093 71.271917 -3.340376 -17.408638 -22.519062 48.212503 -4.809968 3.361532 -10.458776 5.654030 -5.950000 -10.567560 -2.335300 
